<svg viewBox="0 0 30 26" xmlns="http://www.w3.org/2000/svg" xmlns:xlink="http://www.w3.org/1999/xlink" width="30"  height="26" ><defs><path id="a" d="M0 0h30v26H0z"></path><path id="a" d="M0 0h110.272v109.946H0z"></path></defs><g fill="none" fill-rule="evenodd"><mask id="b" fill="#fff"><use xlink:href="#a"></use></mask><path d="M6.798 8.738c-.751 0-1.36-.611-1.36-1.365s.609-1.365 1.36-1.365c.752 0 1.36.61 1.36 1.365 0 .754-.608 1.365-1.36 1.365m8.162-2.73c.752 0 1.36.61 1.36 1.365 0 .754-.608 1.365-1.36 1.365-.751 0-1.36-.611-1.36-1.365s.609-1.365 1.36-1.365M11.756 19.44a7.25 7.25 0 01-.307-2.087c0-4.572 4.276-8.278 9.551-8.278.485 0 .96.032 1.426.093C22.092 4.057 17.205 0 11.223 0 5.024 0 0 4.355 0 9.726c0 2.708 1.278 5.157 3.338 6.92.017.025.037.05.063.076 1.36 1.366.34 3.755.34 3.755l2.04-1.366c.464-.31 1.044-.331 1.54-.263.349.112.706.21 1.07.292h.002a12.881 12.881 0 003.363.3m11.699-3.293c-.603 0-1.091-.49-1.091-1.094 0-.605.488-1.095 1.09-1.095.603 0 1.091.49 1.091 1.095 0 .604-.488 1.094-1.09 1.094m-6.546 0c-.602 0-1.09-.49-1.09-1.094 0-.605.488-1.095 1.09-1.095.603 0 1.091.49 1.091 1.095 0 .604-.488 1.094-1.09 1.094M21 9.58c-4.97 0-9 3.492-9 7.8s4.03 7.8 9 7.8c.784 0 1.544-.087 2.27-.25v-.001c.293-.066.58-.144.859-.234.398-.054.863-.037 1.235.211L27 26s-.818-1.916.273-3.01a.418.418 0 00.05-.062C28.975 21.514 30 19.55 30 17.378c0-4.307-4.03-7.8-9-7.8" fill="#FFFFFF" mask="url(#b)"></path></g></svg>
